<svg width="1200" height="760" viewBox="0 0 1200 760" fill="none" xmlns="http://www.w3.org/2000/svg">
  <rect width="1200" height="760" rx="44" fill="#061B30"/>
  <circle cx="1000" cy="120" r="220" fill="#D98A21" opacity=".24"/>
  <circle cx="130" cy="660" r="250" fill="#2F7D62" opacity=".22"/>
  <path d="M0 570C160 500 260 560 410 505C560 450 650 330 820 350C990 370 1040 510 1200 455V760H0V570Z" fill="url(#wave)"/>
  <rect x="92" y="94" width="468" height="546" rx="34" fill="white" opacity=".96"/>
  <rect x="132" y="154" width="178" height="38" rx="19" fill="#EAF0F7"/>
  <rect x="132" y="224" width="342" height="26" rx="13" fill="#D98A21" opacity=".82"/>
  <rect x="132" y="284" width="286" height="22" rx="11" fill="#CBD5E1"/>
  <rect x="132" y="330" width="324" height="22" rx="11" fill="#CBD5E1"/>
  <rect x="132" y="376" width="246" height="22" rx="11" fill="#CBD5E1"/>
  <rect x="132" y="462" width="160" height="106" rx="22" fill="#08345A"/>
  <rect x="318" y="462" width="160" height="106" rx="22" fill="#F8B84E"/>
  <path d="M177 516L205 544L250 493" stroke="white" stroke-width="18" stroke-linecap="round" stroke-linejoin="round"/>
  <path d="M363 516L391 544L436 493" stroke="#061B30" stroke-width="18" stroke-linecap="round" stroke-linejoin="round"/>
  <rect x="650" y="156" width="366" height="366" rx="40" fill="white" opacity=".12"/>
  <rect x="706" y="214" width="254" height="250" rx="28" fill="white"/>
  <path d="M706 282H960" stroke="#E2E8F0" stroke-width="18"/>
  <rect x="750" y="334" width="54" height="46" rx="12" fill="#D98A21"/>
  <rect x="830" y="334" width="54" height="46" rx="12" fill="#08345A"/>
  <rect x="750" y="404" width="54" height="46" rx="12" fill="#2F7D62"/>
  <text x="726" y="260" fill="#061B30" font-family="Inter, Arial, sans-serif" font-size="46" font-weight="900">2026</text>
  <text x="650" y="610" fill="white" font-family="Inter, Arial, sans-serif" font-size="72" font-weight="900">Admissions</text>
  <text x="654" y="664" fill="#FCD58B" font-family="Inter, Arial, sans-serif" font-size="30" font-weight="800">Plan your next step</text>
  <defs>
    <linearGradient id="wave" x1="0" y1="350" x2="1200" y2="760" gradientUnits="userSpaceOnUse">
      <stop stop-color="#08345A"/>
      <stop offset="1" stop-color="#2F7D62"/>
    </linearGradient>
  </defs>
</svg>
